<svg version="1" xmlns="http://www.w3.org/2000/svg" width="462.667" height="462.667" viewBox="0 0 347.000000 347.000000"><path d="M154.5 1.7c-5.9.6-11.9 1.5-13.4 1.8-1.4.4-3.9.9-5.5 1.2-8.9 1.5-28.2 8.4-40.1 14.5C51.1 41.8 19.1 81.5 6.2 130c-1.1 4.1-2.3 9.1-2.6 11-.3 1.9-.8 4.6-1.1 6-2.6 12.9-2.3 41.2.5 56.1.6 3 1.3 6.5 1.5 7.9.9 4.9 5.4 19.1 8.9 27.8 3.7 9.3 13.3 27.5 14.8 28 .4.2.8.8.8 1.3 0 .6 2.8 4.7 6.2 9.1 40.9 53.8 107.4 79.1 173 65.7 32.9-6.6 63.6-23.3 87.3-47.3 11.5-11.6 13.5-13.9 21.2-25.3 12.4-18.4 22.6-42.6 26.3-62.5.6-2.9 1.2-6.4 1.5-7.7 1.7-9.1 2.4-28.6 1.3-41.1-2-23.3-10-50.3-20-67.3-1.5-2.6-2.8-5-2.8-5.3 0-.9-10.1-15.7-14.3-20.9-7.1-8.9-25.1-25.8-34.7-32.8-11.1-7.8-34-19.5-45.5-23.2-26.3-8.2-48.9-10.6-74-7.8z"/></svg>