<svg xmlns="http://www.w3.org/2000/svg" viewBox="269.8 269.8 15 15">
	<path d="M282.2,271.4c0-0.6-0.5-1-1-1h-7.8c-0.6,0-1,0.5-1,1v3.1h9.8V271.4z"/>
	<path d="M283.3,275h-11.9c-0.9,0-1.6,0.7-1.6,1.6v4.7c0,0.9,0.7,1.6,1.6,1.6h0.5v-4.1h10.9v4.1h0.5c0.9,0,1.6-0.7,1.6-1.6v-4.7
		C284.8,275.7,284.1,275,283.3,275z M281.7,277.6c-0.3,0-0.5-0.2-0.5-0.5c0-0.3,0.2-0.5,0.5-0.5c0.3,0,0.5,0.2,0.5,0.5
		C282.2,277.4,282,277.6,281.7,277.6z"/>
	<path d="M272.4,283.3c0,0.6,0.5,1,1,1h7.8c0.6,0,1-0.5,1-1v-4.1h-9.8V283.3z"/>
</svg>
