<svg xmlns="http://www.w3.org/2000/svg" viewBox="0 0 12.959 20.016">
	<path class="st0" d="M12.854,1.445l-1.429-1.339c-0.103-0.103-0.198-0.134-0.333-0.078c-0.135,0.056-0.163,0.188-0.163,0.334v0.753
		h-0.842H8.042V0.361c0-0.146-0.148-0.278-0.283-0.334c-0.135-0.056-0.35-0.025-0.453,0.078L6.117,1.445
		c-0.141,0.141-0.141,0.34,0,0.482l1.188,1.339c0.103,0.103,0.319,0.134,0.453,0.078C7.894,3.288,8.042,3.156,8.042,3.01V2.077
		h2.045h0.842V3.01c0,0.146,0.028,0.278,0.163,0.334c0.135,0.056,0.23,0.025,0.333-0.078l1.429-1.339
		C12.994,1.785,12.994,1.586,12.854,1.445z"/>
	<path class="st0" d="M11.4,7.976c-0.098,0-0.347,0.034-0.602,0.113c-0.065-0.87-0.794-1.558-1.68-1.558
		c-0.399,0-0.765,0.139-1.054,0.372C7.85,6.251,7.286,5.809,6.588,5.809c-0.463,0-0.874,0.19-1.168,0.502L5.26,1.836
		c0-1.03-0.724-1.806-1.685-1.806c-0.961,0-1.685,0.776-1.685,1.814l0.165,7.711C1.86,9.661,1.565,9.854,1.188,10.197
		c-1.306,1.188-1.734,4.062-0.259,6.286c1.642,2.476,3.566,3.533,6.434,3.533c3.039,0,4.055-1.526,4.836-3.089
		c0.751-1.503,0.76-7.261,0.76-7.505C12.959,8.651,12.23,7.976,11.4,7.976z M11.554,16.603c-0.735,1.472-1.558,2.69-4.19,2.69
		c-2.631,0-4.321-0.93-5.833-3.21c-0.881-1.328-1.263-4.073,0.143-5.352c0.152-0.138,0.286-0.246,0.399-0.33l0.054,2.518
		c0.004,0.199,0.171,0.36,0.369,0.353c0.199-0.004,0.357-0.169,0.353-0.369L2.612,1.836c0-0.638,0.396-1.084,0.963-1.084
		c0.567,0,0.963,0.446,0.964,1.096l0.241,6.742c0.007,0.185,0.152,0.335,0.337,0.348c0.183,0.012,0.349-0.118,0.38-0.3l0.183-1.084
		c0.003-0.02,0.005-0.04,0.005-0.06c0-0.549,0.389-0.963,0.904-0.963c0.582,0,0.846,0.499,0.846,0.963v0.722
		c0,0.199,0.162,0.361,0.361,0.361s0.361-0.162,0.361-0.361c0-0.531,0.432-0.963,0.962-0.963s0.962,0.432,0.962,0.963v1.565
		c0,0.199,0.162,0.361,0.361,0.361s0.361-0.162,0.361-0.361v-0.92c0.144-0.07,0.427-0.164,0.597-0.164
		c0.431,0,0.838,0.351,0.838,0.722C12.237,11.038,12.114,15.481,11.554,16.603z"/>
</svg>
