<svg class="chromatix_logo" xmlns="http://www.w3.org/2000/svg" width="505" height="105" viewBox="0 0 505 105">

	<style>
	
		/* global overrides */
		
			/* every CHROMATIX letter except for the A */
			
				/*
				.logo .CHROMATIX path,
				.logo .CHROMATIX polygon:not(.A),
				.logo .CHROMATIX rect { fill: red !important; }
				/**/
				
			/* the entire tagline */
			
				/*.logo .tagline path { fill: red !important; } /**/
			
			/* tagline word 1 */
			
				/* .logo .tagline g:nth-of-type(1) path { fill: red !important; } /**/
			
			/* tagline word 2 */
			
				/* .logo .tagline g:nth-of-type(2) path { fill: red !important; } /**/
	
		/* letter by letter */
		
			.logo .CHROMATIX .C { fill: #070707; }
			.logo .CHROMATIX .H { fill: #070707; }
			.logo .CHROMATIX .R { fill: #070707; }
			.logo .CHROMATIX .O { fill: #070707; }
			.logo .CHROMATIX .M { fill: #070707; }
			.logo .CHROMATIX .A { fill: #E6D840; } /* Chromatix yellow */
			.logo .CHROMATIX .T { fill: #070707; }
			.logo .CHROMATIX .I { fill: #070707; }
			.logo .CHROMATIX .X { fill: #070707; }
			
			.logo .tagline .DIGITAL .D { fill: #070707; }
			.logo .tagline .DIGITAL .I1 { fill: #070707; }
			.logo .tagline .DIGITAL .G { fill: #070707; }
			.logo .tagline .DIGITAL .I2 { fill: #070707; }
			.logo .tagline .DIGITAL .T { fill: #070707; }
			.logo .tagline .DIGITAL .A { fill: #070707; }
			.logo .tagline .DIGITAL .L { fill: #070707; }
			
			.logo .tagline .AGENCY .A { fill: #070707; }
			.logo .tagline .AGENCY .G { fill: #070707; }
			.logo .tagline .AGENCY .E { fill: #070707; }
			.logo .tagline .AGENCY .N { fill: #070707; }
			.logo .tagline .AGENCY .C { fill: #070707; }
			.logo .tagline .AGENCY .Y { fill: #070707; }
		
	</style>
	
	<g class="logo">
	
		<g class="CHROMATIX">
		
			<path class="C" d="
				M53.673 51.553c-3.576 3.923-8.647 6.39-14.294 6.39c-10.823 0-19.596-9.012-19.596-20.13
				c0-11.116 8.772-20.129 19.596-20.129c5.253 0 10 2.1 13.5 5.595l7.624-7.625c-5.479-5.435-13.019-8.792-21.345-8.792
				c-16.743 0-30.316 13.573-30.316 30.316c0 16.7 13.6 30.3 30.3 30.316c8.421 0 16.039-3.434 21.533-8.977L53.673 51.553z"/>
			<polygon class="H" points="
				106.9,7.1 106.9,31.8 80.3,31.8 80.3,7 69.5,7 69.5,67.2 80.3,67.2
				80.3,42.6 106.9,42.6 106.9,67.3 117.7,67.3 117.7,7.1"/>
			<path class="R" d="
				M167.177 27.04c0-10.92-8.641-19.801-19.455-20.235V6.762h-20.968v10.824h2.21h18.758c4.982 0 9 4 9 9
				c0 4.981-4.039 9.021-9.021 9.021h-9.029v-0.021h-11.938l0.115 0.133l-0.115-0.039l27.688 31.529h12.734l-16.101-20.348
				C160.271 45 167.2 36.8 167.2 27.04z"/>
			<path class="O" d="
				M203.901 6.762c-16.742 0-30.316 13.574-30.316 30.316c0 16.7 13.6 30.3 30.3 30.3
				c16.743 0 30.317-13.574 30.317-30.316C234.219 20.3 220.6 6.8 203.9 6.762z M204.09 57.8
				c-10.823 0-19.596-9.012-19.596-20.128s8.772-20.129 19.596-20.129c10.822 0 19.6 9 19.6 20.1
				S214.913 57.8 204.1 57.844z"/>
			<polygon class="M" points="
				296.1,7.1 285.5,18.5 269.7,35.7 253.4,18.3 242.7,6.9 242.6,6.9 242.6,22.8
				242.6,67.2 253.4,67.2 253.4,33.8 269.7,50.5 285.5,34 285.5,67.3 296.3,67.3 296.3,22.8
				296.3,7.1"/>
			<polygon class="A" points="
				363.4,67.2 363.4,67.2 333.6,6.8 333.6,6.8 303.7,67.2 314.1,67.2
				333.6,28.7 333.6,28.8 348.3,57.8 338.1,57.8 333.6,67.2 353,67.2 353.1,67.3 363.4,67.3
				363.4,67.2"/>
			<polygon class="T" points="
				403.3,6.8 355,6.8 355,17.6 373.7,17.6 373.7,67.3 384.1,67.3 384.1,17.6
				403.3,17.6"/>
			<rect class="I" x="414.6" y="6.8" width="10.8" height="60.5"/>
			<polygon class="X" points="
				496.3,6.8 483.4,6.8 466.5,28.7 449.6,6.8 436.8,6.8 460,37.1 436.8,67.2
				449.9,67.2 466.5,45.5 483.2,67.2 496.3,67.2 473,37.1"/>
				
		</g> <!-- .CHROMATIX -->
		
		<g class="tagline">
		
			<g class="DIGITAL">
			
				<path class="D" d="
					M282.952 95.762c-1.257 1.508-2.899 2.264-4.93 2.264h-4.991V83.051h4.991c2.015 0 3.6 0.8 4.9 2.3
					c1.188 1.4 1.8 3.1 1.8 5.201C284.714 92.6 284.1 94.3 283 95.762z M282.323 85.9
					c-1.089-1.34-2.524-2.014-4.3-2.014h-4.151v13.275h4.151c1.541 0 2.873-0.57 4.007-1.719c1.215-1.23 1.824-2.873 1.824-4.928
					C283.854 88.7 283.3 87.1 282.3 85.902z"/>
				<path class="I1" d="M292.829 98.025V83.051h0.838v14.975H292.829z"/>
				<path class="G" d="
					M315.059 95.949c-1.44 1.523-3.348 2.285-5.725 2.285c-2.268 0-4.111-0.715-5.536-2.139
					c-1.44-1.441-2.16-3.295-2.16-5.561c0-2.236 0.72-4.074 2.16-5.516c1.454-1.453 3.299-2.182 5.536-2.182
					c2.685 0 4.8 1 6.3 3.084l-0.693 0.525c-1.342-1.848-3.224-2.771-5.64-2.771c-1.973 0-3.609 0.65-4.909 2
					s-1.951 2.938-1.951 4.908c0 2 0.6 3.6 1.9 4.908c1.313 1.3 3 1.9 4.9 1.93c2.111 0 3.809-0.705 5.098-2.117
					c0.977-1.063 1.537-2.266 1.675-3.607h-4.949v-0.861h5.894C317.049 92.8 316.4 94.6 315.1 95.949z"/>
				<path class="I2" d="M324.789 98.025V83.051h0.84v14.975H324.789z"/>
				<path class="T" d="M337.665 83.91v14.115h-0.861V83.91h-3.312v-0.859h7.487v0.859H337.665z"/>
				<path class="A" d="
					M358.908 98.025l-1.72-4.488h-6.814l-1.743 4.488h-0.838l5.978-15.457l5.997 15.457H358.908z M353.771 84.75l-3.062 7.9
					h6.124L353.771 84.75z"/>
				<path class="L" d="M367.358 98.025V83.051h0.842v14.113h4.213v0.859h-5.055V98.025z"/>
				
			</g> <!-- .DIGITAL -->
			
			<g class="AGENCY">
			
				<path class="A" d="
					M401.039 98.025l-1.719-4.488h-6.816l-1.742 4.488h-0.84l5.979-15.457l5.997 15.457H401.039z M395.902 84.75l-3.062 7.9
					h6.123L395.902 84.75z"/>
				<path class="G" d="
					M422.365 95.949c-1.441 1.523-3.348 2.285-5.726 2.285c-2.265 0-4.109-0.715-5.536-2.139
					c-1.44-1.441-2.16-3.295-2.16-5.561c0-2.236 0.72-4.074 2.16-5.516c1.454-1.453 3.299-2.182 5.536-2.182
					c2.685 0 4.8 1 6.3 3.084l-0.69 0.525c-1.342-1.848-3.225-2.771-5.643-2.771c-1.972 0-3.606 0.65-4.909 2
					c-1.297 1.301-1.951 2.938-1.951 4.908c0 2 0.6 3.6 1.9 4.908c1.315 1.3 3 1.9 4.9 1.9
					c2.11 0 3.809-0.705 5.095-2.117c0.979-1.063 1.539-2.266 1.678-3.607h-4.949v-0.861h5.893
					C424.358 92.8 423.7 94.6 422.4 95.949z"/>
				<path class="E" d="M431.971 98.025V83.051h7.194v0.861h-6.334v5.451h6.334v0.924h-6.334v6.879h6.334v0.861h-7.194V98.025z"/>
				<path class="N" d="M448.201 85.316v12.709h-0.838V82.947l11.179 13.109V83.053h0.858v15.225L448.201 85.316z"/>
				<path class="C" d="
					M479.095 97.143c-0.784 0.574-1.847 0.926-3.188 1.049c-0.152 0.016-0.32 0.023-0.503 0
					c-0.184 0.008-0.372 0.012-0.566 0.012c-2.267 0-4.111-0.715-5.536-2.139c-1.439-1.441-2.16-3.295-2.16-5.561
					c0-2.264 0.715-4.109 2.14-5.533c1.44-1.443 3.293-2.16 5.56-2.16c1.287 0 2.4 0.2 3.5 0.6
					c0.614 0.2 1.2 0.6 1.8 1.027v1.068c-0.587-0.488-1.229-0.881-1.929-1.174c-1.063-0.432-2.174-0.65-3.334-0.65
					c-1.987 0-3.622 0.645-4.908 1.93c-1.287 1.289-1.93 2.932-1.93 4.93s0.637 3.6 1.9 4.908c1.287 1.3 2.9 1.9 4.9 1.9
					c1.244 0 2.326-0.227 3.251-0.672c0.531-0.268 1.202-0.691 2.013-1.281v0.986L479.095 97.143z"/>
				<path class="Y" d="M491.969 90.539v7.486h-0.859v-7.486l-4.257-7.488h0.986l3.69 6.48l3.732-6.48h0.985L491.969 90.539z"/>
				
			</g> <!-- .AGENCY -->
			
		</g> <!-- .tagline -->
		
	</g> <!-- .logo -->
	
</svg>